<?xml version="1.0" encoding="iso-8859-1"?>
<!-- Generator: Adobe Illustrator 18.1.1, SVG Export Plug-In . SVG Version: 6.00 Build 0)  -->
<svg version="1.1" id="Capa_1" xmlns="http://www.w3.org/2000/svg" xmlns:xlink="http://www.w3.org/1999/xlink" x="0px" y="0px" viewBox="0 0 289.666 289.666" style="enable-background:new 0 0 289.666 289.666;" xml:space="preserve">
    <g>
        <path id="path8813" fill="#ffa86a" d="M34.974,0.002c-1.689-0.051-3.273,0.815-4.143,2.264l-30,50c-1.326,2.21-0.609,5.077,1.601,6.403
		c0.725,0.435,1.555,0.665,2.401,0.665h25v85.332c0,2.761,2.239,5,5,5h105v70.363c-16.918,2.441-30,17.064-30,34.637
		c0,19.271,15.729,35,35,35s35-15.729,35-35c0-17.573-13.082-32.196-30-34.637v-70.363h105c2.761,0,5-2.239,5-5V59.334h25
		c2.578,0,4.667-2.09,4.667-4.667c0-0.846-0.23-1.676-0.665-2.401l-30-50c-0.818-1.363-2.273-2.216-3.861-2.264
		c-1.689-0.051-3.273,0.815-4.143,2.264l-30,50c-1.326,2.21-0.609,5.077,1.601,6.403c0.725,0.435,1.555,0.665,2.401,0.665h25v80.332
		h-100V59.334h25c2.578,0,4.667-2.09,4.667-4.667c0-0.846-0.23-1.676-0.665-2.401l-30-50c-0.818-1.363-2.273-2.216-3.861-2.264
		c-1.689-0.051-3.273,0.815-4.143,2.264l-30,50c-1.326,2.21-0.609,5.077,1.601,6.403c0.725,0.435,1.555,0.665,2.401,0.665h25v80.332
		h-100V59.334h25c2.578,0,4.667-2.09,4.667-4.667c0-0.846-0.23-1.676-0.665-2.401l-30-50C38.018,0.903,36.563,0.05,34.974,0.002z
		 M34.833,13.738L56.591,50H13.076L34.833,13.738z M144.833,13.738L166.591,50h-43.516L144.833,13.738z M254.833,13.738L276.591,50
		h-43.516L254.833,13.738z M34.96,26.139c-0.912-0.039-1.773,0.422-2.246,1.203l-10,16c-0.763,1.151-0.448,2.703,0.703,3.465
		c1.151,0.763,2.703,0.448,3.465-0.703c0.024-0.037,0.048-0.074,0.07-0.112l10-16c0.749-1.16,0.415-2.708-0.745-3.456
		C35.834,26.295,35.404,26.158,34.96,26.139z M144.96,26.139c-0.912-0.039-1.773,0.422-2.246,1.203l-10,16
		c-0.763,1.151-0.448,2.703,0.703,3.465c1.151,0.763,2.703,0.448,3.465-0.703c0.024-0.037,0.048-0.074,0.07-0.112l10-16
		c0.749-1.16,0.415-2.708-0.745-3.456C145.834,26.295,145.404,26.158,144.96,26.139z M254.96,26.139
		c-0.912-0.039-1.773,0.422-2.246,1.203l-10,16c-0.763,1.151-0.448,2.703,0.703,3.465c1.151,0.763,2.703,0.448,3.465-0.703
		c0.024-0.037,0.048-0.074,0.07-0.112l10-16c0.749-1.16,0.415-2.708-0.745-3.456C255.834,26.295,255.404,26.158,254.96,26.139z
		 M144.833,229.666c13.866,0,25,11.134,25,25s-11.134,25-25,25s-25-11.134-25-25S130.967,229.666,144.833,229.666z M144.833,237.166
		c-9.635,0-17.5,7.865-17.5,17.5c-0.02,1.381,1.084,2.516,2.465,2.535c1.381,0.02,2.516-1.084,2.535-2.465c0-0.024,0-0.047,0-0.071
		c0-6.933,5.567-12.5,12.5-12.5c1.381,0.02,2.516-1.084,2.535-2.465c0.02-1.381-1.084-2.516-2.465-2.535
		C144.881,237.166,144.857,237.166,144.833,237.166z" />
    </g>
    <g></g>
    <g></g>
    <g></g>
    <g></g>
    <g></g>
    <g></g>
    <g></g>
    <g></g>
    <g></g>
    <g></g>
    <g></g>
    <g></g>
    <g></g>
    <g></g>
    <g></g>
</svg>